<svg xmlns="http://www.w3.org/2000/svg" viewBox="0 0 1200 750"><rect width="1200" height="750" fill="#0b1624"/><g opacity=".18" stroke="#b7c5d5"><path d="M70 130H1130M70 280H1130M70 430H1130M70 580H1130"/></g><path d="M80 520 C180 480 200 560 300 470 S450 380 540 440 S700 320 790 350 S930 220 1020 280 S1080 180 1130 200" fill="none" stroke="#f0b84b" stroke-width="8"/><g fill="#13263b" stroke="#2f536d"><rect x="100" y="590" width="210" height="55" rx="4"/><rect x="350" y="590" width="210" height="55" rx="4"/><rect x="600" y="590" width="210" height="55" rx="4"/><rect x="850" y="590" width="210" height="55" rx="4"/></g><text x="70" y="90" fill="#fff" font-family="Arial" font-size="28" font-weight="700" letter-spacing="5">MACRO ECONOMY</text></svg>